<svg version="1.1" xmlns="http://www.w3.org/2000/svg" xmlns:xlink="http://www.w3.org/1999/xlink" width="512.000000pt" height="512.000000pt" viewBox="0,0,256,256"><g fill="#ffffff" fill-rule="nonzero" stroke="none" stroke-width="1" stroke-linecap="butt" stroke-linejoin="miter" stroke-miterlimit="10" stroke-dasharray="" stroke-dashoffset="0" font-family="none" font-weight="none" font-size="none" text-anchor="none" style="mix-blend-mode: normal"><g transform="translate(0,-0.0167) scale(0.5,0.5)"><g transform="translate(0,512) scale(0.1,-0.1)"><path d="M452,5100c-109,-29 -187,-74 -272,-160c-87,-86 -131,-163 -160,-276c-20,-76 -20,-118 -20,-2104c0,-1986 0,-2028 20,-2104c29,-113 73,-190 160,-276c86,-87 163,-131 276,-160c76,-20 118,-20 2104,-20c1986,0 2028,0 2104,20c113,29 190,73 276,160c87,86 131,163 160,276c20,76 20,118 20,2104c0,1986 0,2028 -20,2104c-29,113 -73,190 -160,276c-86,87 -163,131 -276,160c-76,20 -117,20 -2108,19c-1967,0 -2033,-1 -2104,-19zM4623,4691c21,-13 50,-42 65,-64l27,-41v-2025v-2026l-24,-38c-13,-21 -42,-50 -64,-65l-41,-27h-2026h-2026l-41,27c-22,15 -51,44 -64,65l-24,38l-3,2004c-1,1390 1,2015 8,2043c13,47 77,114 122,127c21,6 793,9 2043,8l2010,-2z"></path><path d="M1152,4265c-74,-21 -131,-56 -189,-118c-90,-95 -127,-217 -106,-342c15,-86 46,-149 106,-212c90,-95 203,-140 327,-130c100,8 172,40 244,107c138,130 174,321 90,487c-38,75 -136,165 -211,193c-75,28 -190,35 -261,15z"></path><path d="M3240,3179c-194,-28 -392,-143 -485,-282l-35,-52v153v152h-340h-340v-1130v-1130h339h340l4,653c4,709 4,707 62,831c72,152 213,226 406,213c136,-9 227,-68 279,-182c52,-112 53,-123 57,-842l4,-673h345h345l-4,768c-3,499 -9,790 -16,832c-75,438 -259,634 -646,690c-81,11 -236,11 -315,-1z"></path><path d="M900,2020v-1130h350h350v1130v1130h-350h-350z"></path></g></g></g></svg>