<svg version="1.1" xmlns="http://www.w3.org/2000/svg" xmlns:xlink="http://www.w3.org/1999/xlink" width="512.000000pt" height="512.000000pt" viewBox="0,0,256,256"><g fill="#ffffff" fill-rule="nonzero" stroke="none" stroke-width="1" stroke-linecap="butt" stroke-linejoin="miter" stroke-miterlimit="10" stroke-dasharray="" stroke-dashoffset="0" font-family="none" font-weight="none" font-size="none" text-anchor="none" style="mix-blend-mode: normal"><g transform="translate(-0.15625,-0.11374) scale(0.5,0.5)"><g transform="translate(0,512) scale(0.1,-0.1)"><path d="M1609,5110c-330,-14 -556,-56 -747,-138c-179,-77 -285,-148 -417,-279c-178,-177 -289,-376 -359,-643c-62,-236 -76,-507 -76,-1490c0,-967 13,-1241 71,-1477c144,-587 574,-961 1207,-1048c181,-24 561,-35 1287,-35c675,0 1064,10 1239,31c358,42 638,166 859,378c249,240 381,527 429,936c19,160 19,2294 0,2445c-39,306 -130,558 -274,751c-71,96 -223,241 -318,306c-215,145 -474,225 -815,254c-161,13 -1813,20 -2086,9zM3772,4627c285,-42 445,-113 599,-266c100,-100 155,-188 204,-324c82,-230 90,-352 90,-1482c0,-651 -4,-964 -13,-1069c-29,-347 -98,-534 -260,-707c-169,-180 -380,-269 -707,-299c-177,-17 -1640,-25 -1977,-11c-152,6 -311,16 -354,22c-189,26 -372,93 -486,176c-71,53 -185,177 -227,247c-84,140 -134,337 -151,587c-30,454 -20,2012 14,2270c36,267 119,447 276,599c172,167 398,248 748,270c76,4 587,7 1137,5c853,-2 1016,-4 1107,-18z"></path><path d="M3802,4200c-113,-57 -167,-145 -167,-275c0,-94 22,-150 86,-214c64,-63 120,-86 214,-86c67,0 89,4 137,28c101,50 158,137 166,253c7,103 -16,163 -87,235c-66,66 -124,89 -221,89c-54,0 -78,-6 -128,-30z"></path><path d="M2336,3854c-263,-48 -496,-171 -692,-368c-260,-259 -385,-562 -385,-926c0,-220 41,-401 132,-583c280,-556 896,-841 1495,-692c236,59 418,161 595,332c159,154 266,322 333,523c48,145 66,257 66,420c0,162 -18,275 -65,417c-64,192 -157,344 -302,494c-198,204 -445,336 -717,384c-111,19 -352,19 -460,-1zM2732,3396c458,-88 762,-538 674,-999c-54,-279 -259,-527 -521,-628c-128,-50 -202,-62 -350,-56c-105,4 -146,10 -215,32c-303,96 -524,341 -586,649c-24,119 -15,304 21,416c94,298 345,525 644,585c89,18 243,18 333,1z"></path></g></g></g></svg>