<svg version="1.1" xmlns="http://www.w3.org/2000/svg" xmlns:xlink="http://www.w3.org/1999/xlink" width="512.000000pt" height="512.000000pt" viewBox="0,0,256,256"><g fill="#ffffff" fill-rule="nonzero" stroke="none" stroke-width="1" stroke-linecap="butt" stroke-linejoin="miter" stroke-miterlimit="10" stroke-dasharray="" stroke-dashoffset="0" font-family="none" font-weight="none" font-size="none" text-anchor="none" style="mix-blend-mode: normal"><g transform="translate(-0.00708,-0.0375) scale(0.5,0.5)"><g transform="translate(0,512) scale(0.1,-0.1)"><path d="M2247,4995c-1043,-126 -1913,-881 -2167,-1880c-59,-234 -74,-356 -74,-610c-1,-129 5,-259 13,-315c108,-783 536,-1431 1212,-1841c206,-124 479,-239 570,-239c45,0 55,4 85,34c22,22 34,44 35,63c2,40 -3,448 -4,449c-1,1 -42,-5 -92,-13c-108,-17 -273,-12 -360,12c-115,30 -202,79 -279,158c-64,63 -81,90 -144,217c-83,169 -138,244 -230,308c-142,100 -165,144 -87,171c31,10 54,11 103,3c136,-22 259,-109 355,-251c120,-178 219,-247 389,-271c78,-11 185,1 285,31c71,22 71,22 98,131c18,70 67,163 111,209l25,26l-63,7c-103,12 -293,55 -386,88c-168,59 -276,123 -395,237c-222,212 -326,520 -314,931c4,141 9,178 31,255c36,121 88,223 164,323c48,64 60,86 53,100c-21,40 -41,168 -41,261c0,107 18,219 50,317c25,73 38,78 145,63c136,-19 330,-99 506,-209c71,-45 80,-48 111,-39c84,24 309,59 450,69c228,17 538,-10 737,-64l54,-15l91,56c175,108 358,183 495,203c108,15 117,10 145,-79c13,-42 29,-111 36,-154c17,-103 8,-293 -17,-372l-19,-60l46,-56c150,-187 212,-376 211,-645c-1,-671 -304,-1054 -930,-1179c-64,-12 -142,-26 -174,-30l-58,-7l35,-38c43,-48 88,-135 112,-216c15,-51 18,-122 23,-504c5,-334 9,-451 19,-467c17,-31 63,-53 108,-53c93,0 453,163 659,297c165,109 299,219 435,359c385,395 615,869 691,1424c20,144 17,507 -5,655c-172,1140 -1081,2015 -2234,2150c-154,18 -464,18 -615,0z"></path></g></g></g></svg>