<svg version="1.1" xmlns="http://www.w3.org/2000/svg" xmlns:xlink="http://www.w3.org/1999/xlink" width="896.000000pt" height="1280.000000pt" viewBox="0,0,179.1875,256"><g fill="#ffffff" fill-rule="nonzero" stroke="none" stroke-width="1" stroke-linecap="butt" stroke-linejoin="miter" stroke-miterlimit="10" stroke-dasharray="" stroke-dashoffset="0" font-family="none" font-weight="none" font-size="none" text-anchor="none" style="mix-blend-mode: normal"><g transform="translate(-0.02046,-0.01309) scale(0.2,0.2)"><g transform="translate(0,1280) scale(0.1,-0.1)"><path d="M4225,11284c-557,-56 -1016,-203 -1463,-468c-618,-368 -1128,-950 -1411,-1610c-209,-489 -302,-968 -288,-1495c10,-404 75,-748 212,-1125c90,-248 196,-459 369,-734c95,-151 2416,-3137 2501,-3218c202,-192 469,-192 670,0c65,62 2423,3089 2479,3182c16,27 58,96 93,153c211,340 374,765 452,1173c54,281 74,651 52,934c-67,836 -429,1622 -1016,2209c-544,545 -1202,872 -1970,981c-105,15 -585,27 -680,18zM4870,10580c489,-72 930,-265 1320,-576c109,-87 327,-305 414,-414c322,-404 526,-877 603,-1405c24,-169 24,-590 0,-765c-61,-432 -203,-816 -440,-1185c-101,-158 -2261,-2939 -2285,-2942c-21,-3 -2162,2745 -2275,2921c-247,383 -383,734 -448,1158c-29,188 -36,534 -15,730c72,676 362,1274 847,1743c446,431 1035,700 1649,754c158,14 472,5 630,-19z"></path><path d="M4325,9184c-559,-85 -988,-453 -1150,-987c-45,-151 -58,-255 -52,-442c4,-147 9,-186 35,-285c137,-529 521,-908 1046,-1032c125,-30 409,-32 536,-4c532,116 930,508 1067,1052c26,101 28,123 28,314c0,191 -2,213 -28,314c-135,537 -524,926 -1047,1047c-83,20 -361,34 -435,23zM4648,8489c26,-6 89,-31 141,-56c175,-84 311,-253 361,-449c27,-105 27,-263 0,-368c-50,-196 -186,-365 -361,-449c-120,-58 -179,-71 -309,-71c-130,0 -189,13 -309,71c-175,84 -311,253 -361,449c-27,105 -27,263 0,368c68,267 292,473 560,516c65,11 211,5 278,-11z"></path><path d="M2360,3066c-126,-107 -203,-214 -246,-343c-22,-67 -26,-90 -22,-163c8,-148 61,-258 190,-395c296,-315 912,-547 1668,-630c202,-22 654,-31 865,-16c836,59 1506,287 1845,630c155,157 204,261 205,431c0,116 -16,170 -86,286c-37,61 -148,180 -219,234l-45,35l38,-45c67,-78 91,-143 92,-240c0,-75 -4,-93 -31,-150c-87,-182 -327,-343 -694,-464c-829,-273 -2064,-272 -2887,3c-364,121 -602,281 -687,461c-27,57 -31,75 -31,150c1,97 26,162 90,238c20,23 35,42 33,42c-2,0 -37,-29 -78,-64z"></path></g></g></g></svg>